# xmcd CD database file
#
# Track frame offsets:
#	150
#	19687
#	40012
#	59525
#	79212
#	100145
#	123037
#	150075
#	170012
#	189787
#
# Disc length: 2980 seconds
#
# Revision: 10
# Processed by: cddbd v1.5.2PL0 Copyright (c) Steve Scherf et al.
# Submitted via: CDex 1.70beta3
#
DISCID=6a0ba20a
DTITLE=辛島美登里 - 恋愛事情
DYEAR=1996
DGENRE=Pop
TTITLE0=01_Friends
TTITLE1=02_プロミス・タワー
TTITLE2=03_くちづけは永遠に終わらない
TTITLE3=04_Be with you
TTITLE4=05_愛すること
TTITLE5=06_Woman
TTITLE6=07_彼女の雨
TTITLE7=08_星に願いを
TTITLE8=09_哀しみのDestiny
TTITLE9=10_Bouquet
EXTD=YEAR: 1996
EXTT0=
EXTT1=
EXTT2=
EXTT3=
EXTT4=
EXTT5=
EXTT6=
EXTT7=
EXTT8=
EXTT9=
PLAYORDER=
